<?xml version="1.0" encoding="UTF-8"?><svg id="a" xmlns="http://www.w3.org/2000/svg" viewBox="0 0 210 62.53"><defs><style>.b{fill:#fff;stroke-width:0px;}</style></defs><path class="b" d="m194.53,34.95v-6.15h2.56v-.98h-6.6v.98h2.56v6.15h1.49Zm-62.74-13.04l-2.64-7.14h1.58l2.05,5.52,1.99-5.52h1.06l-2.56,7.14h-1.48Zm6.39-3.9h.34c.62,0,1.04-.13,1.27-.4.23-.27.35-.57.35-.91,0-.29-.09-.52-.29-.7-.19-.17-.58-.26-1.16-.26h-.52v2.27Zm-1.4,3.9v-7.14h2.67c.54,0,.96.07,1.25.21.29.14.51.34.68.62.17.28.25.59.25.94,0,.42-.12.81-.36,1.18-.24.37-.58.66-1.02.85l2.34,3.33h-1.81l-1.77-2.92h-.81v2.92h-1.4Zm6.76-7.14h1.49v7.14h-1.49v-7.14Zm2.04,7.33c.39.15.79.23,1.2.23.17,0,.33-.03.46-.1.13-.06.24-.17.32-.31.08-.15.12-.45.12-.9v-6.25h1.48v6.09c0,.67-.08,1.16-.23,1.46-.15.31-.4.55-.73.74-.33.19-.77.28-1.32.28-.41,0-.84-.06-1.29-.17l-.02-1.06Zm5.39-.19v-7.14h4.57v.98h-3.09v1.99h2.55v.98h-2.55v2.17h3.31v1.01h-4.8Zm-21.11,5.9h1.49v4.38c0,.79.13,1.31.4,1.57.27.26.62.38,1.04.38s.76-.12,1-.38c.25-.25.37-.74.37-1.47v-4.49h1.29v4.39c0,.83-.1,1.42-.31,1.78-.21.36-.51.64-.9.85-.39.2-.89.31-1.49.31s-1.1-.1-1.53-.29c-.42-.19-.76-.48-1.01-.85-.25-.38-.37-.98-.37-1.81v-4.37Zm7.37,7.14v-7.14h1.31l3.3,4.88v-4.88h1.19v7.14h-1.33l-3.28-4.88v4.88h-1.2Zm7.75-7.14h1.49v7.14h-1.49v-7.14Zm5.09,7.14l-2.64-7.14h1.59l2.05,5.52,1.99-5.52h1.06l-2.56,7.14h-1.49Zm4.84,0v-7.14h4.57v.98h-3.09v1.99h2.55v.98h-2.55v2.17h3.31v1.01h-4.8Zm7.43-3.9h.34c.61,0,1.04-.13,1.27-.4.23-.27.35-.57.35-.91,0-.29-.1-.52-.29-.7-.19-.17-.58-.26-1.16-.26h-.52v2.26Zm-1.4,3.9v-7.14h2.67c.55,0,.97.07,1.25.21.29.14.51.34.68.62.17.28.25.59.25.94,0,.42-.12.81-.36,1.19-.24.37-.58.66-1.02.85l2.34,3.33h-1.81l-1.77-2.92h-.82v2.92h-1.4Zm6.25-1.29c.56.23.97.37,1.25.42.28.05.53.07.76.07.42,0,.73-.09.93-.28.21-.19.31-.41.31-.67,0-.2-.06-.38-.17-.54-.12-.16-.4-.36-.84-.61l-.48-.27c-.69-.38-1.15-.74-1.4-1.06-.25-.33-.37-.7-.37-1.13,0-.54.21-1,.62-1.38.41-.38,1-.57,1.77-.57.57,0,1.22.08,1.94.25v1.14c-.74-.27-1.33-.41-1.76-.41-.36,0-.63.08-.82.23-.19.16-.28.34-.28.56,0,.17.06.32.17.47.11.15.39.34.84.59l.52.29c.79.44,1.29.82,1.51,1.15.21.33.32.7.32,1.1,0,.58-.23,1.09-.67,1.5-.45.42-1.16.62-2.13.62-.58,0-1.25-.08-2.01-.24v-1.23Zm6.04-5.85h1.48v7.14h-1.48v-7.14Zm4.57,7.14v-6.15h-2.56v-.98h6.6v.98h-2.56v6.15h-1.49Zm4.59,0v-7.14h4.57v.98h-3.09v1.99h2.55v.98h-2.55v2.17h3.31v1.01h-4.8Zm6-7.14h1.48v7.14h-1.48v-7.14Zm-57.07,17.32h2.22l-1.11-2.85-1.11,2.85Zm-2.19,2.86l2.78-7.14h1.49l2.78,7.14h-1.53l-.74-1.91h-2.96l-.74,1.91h-1.08Zm7.97,0v-7.14h1.97l1.72,5.02,1.77-5.02h1.73v7.14h-1.37v-5.39l-1.74,4.91h-1.2l-1.71-4.98v5.46h-1.17Zm8.66-1.29c.56.24.97.38,1.25.42.28.05.53.07.76.07.41,0,.73-.09.93-.28.21-.19.31-.41.31-.67,0-.2-.06-.38-.17-.54-.12-.16-.39-.36-.84-.62l-.48-.26c-.69-.38-1.15-.74-1.4-1.06-.25-.33-.37-.7-.37-1.13,0-.54.21-1,.62-1.38.41-.38,1-.57,1.77-.57.57,0,1.22.08,1.94.25v1.14c-.74-.27-1.33-.41-1.76-.41-.36,0-.63.08-.82.24-.19.15-.28.34-.28.56,0,.17.06.32.17.47.11.15.39.34.84.6l.52.28c.79.44,1.29.82,1.51,1.15.21.33.32.69.32,1.1,0,.58-.22,1.08-.67,1.5-.45.42-1.16.62-2.13.62-.58,0-1.25-.08-2.01-.24v-1.23Zm7.31,1.29v-6.16h-2.56v-.99h6.6v.99h-2.56v6.16h-1.48Zm4.63,0v-7.14h4.58v.99h-3.09v1.99h2.55v.98h-2.55v2.17h3.31v1.01h-4.8Zm7.33-3.9h.34c.61,0,1.04-.13,1.27-.4.23-.27.35-.57.35-.91,0-.29-.09-.52-.29-.7-.19-.17-.58-.26-1.16-.26h-.52v2.27Zm-1.4,3.9v-7.14h2.67c.55,0,.96.07,1.25.21.29.14.51.34.68.62.17.28.25.59.25.94,0,.42-.12.81-.36,1.18-.24.37-.58.66-1.03.85l2.34,3.33h-1.81l-1.78-2.92h-.82v2.92h-1.4Zm8.05-1.01h1.11c.58,0,1.02-.09,1.33-.27.31-.18.55-.49.73-.91.18-.43.27-.91.27-1.44s-.09-.95-.26-1.34c-.17-.39-.41-.68-.72-.88-.3-.2-.83-.3-1.55-.3h-.9v5.15Zm-1.48,1.01v-7.14h3.07c.82,0,1.46.13,1.92.4.46.26.82.65,1.1,1.16.27.51.41,1.13.41,1.86s-.13,1.35-.39,1.91c-.26.56-.63,1-1.13,1.33-.5.32-1.17.49-2.04.49h-2.94Zm8.87-2.86h2.22l-1.11-2.85-1.11,2.85Zm-2.19,2.86l2.78-7.14h1.49l2.78,7.14h-1.53l-.74-1.91h-2.95l-.74,1.91h-1.08Zm7.77,0v-7.14h1.97l1.72,5.02,1.77-5.02h1.73v7.14h-1.37v-5.39l-1.75,4.91h-1.19l-1.71-4.98v5.46h-1.17ZM122.11,14.8c.52.04.96,0,.84.66-.04.48-.18.73-.96.92-2.35.41-3.42.92-6.95,2.43,1.73-.52,3.16-.81,4.05-.81.44,0,.55.04.55.4,0,.48-.26.77-.7.92-2.06.66-4.93,1.99-7.55,3.13,2.69-.81,4.02-.77,4.57-.81.37-.07.88-.07.7.55-.07.55-.26.81-1.33,1.11-3.94.99-6.37,2.02-10.71,4.19,4.6-1.33,7.62-1.51,9.64-1.62.99,0,1.43,0,1.33.55-.04.52-.15.77-1.03,1.03-2.8.81-6.33,1.47-9.24,2.72,1.29-.22,2.58-.44,3.31-.33.62.07.88.22.77.73-.11.56-.51.92-1.17.96-2.5.22-3.27.48-6.29,1.4.59.04.59.41.33.74-.26.37-.74.66-1.18.66-.92-.04-2.76.11-4.16,1.03-.77.59-1.25-.77-.77-1.32,1.11-1.22,4.38-3.02,6.15-4.23-3.27,1.58-6.36,3.01-9.31,5.67-1,.92-1.48.51-1.59.11-.07-.48-.15-.81-.59-.51-.37.18-.63.44-1.25.96h-.01s-1.06.94-1.06.94h0s-4.2,3.77-4.2,3.77v-.91l3.33-2.99v-.87l-1.89,1.67v-.94l2.76-2.46v-2.4l2.32-.18-1.84-.63c.99-.77,1.91-.18,2.24.11.03-.15.11-.81-.51-1.18-.29-.15-.62-.26-1.18-.22-.84-.67-1.71-.33-2.14.06-.69-.91-1.57-1.02-1.57-1.02l.7,1.54-1.18-.36.89,1.22c-.51.8-1.12,1.79-1.59,3.63-.22.7-.44,2.13-.37,3.38,0,.1.01.18.01.27-1.12-2.52-2.33-6.53-2.33-11.16,0-2.98.47-7.33,2.69-11.92,2.28-4.9,5.08-7.62,7.18-9.5,1.03-.88,1.54-1.18,2.1-1.29.37-.04.73.11.88.55.26,1,.22,1.14-.04,1.55-.62,1.03-2.35,3.02-3.35,5.63,1.91-2.21,1.84-1.95,2.98-3.05.26-.33.77-.59,1.03,0,.3.66.26.81-.11,1.4-.29.52-1.81,1.91-3.42,4.93.77-.92,1.22-1.44,1.43-1.55.26-.26.59-.66.96-.11.47.66.22.74.04,1.18-.15.4-1.66,2.87-2.76,4.97.78-.92.89-1.14,1.29-1.32.22-.11.37.04.48.29.15.34.15.77.04,1.03-1.03,2.1-1.62,2.39-2.72,6.07.88-1.1,1-1.21,1.4-1.69.26-.19.66-.56.96-.04.22.25.33.7.11,1.29-.52,1.25-.63,1.36-1.59,3.53.33-.09.45-.02.64.32.85-1,1.67-1.91,2.38-2.63,2.73-2.76,5.23-4.97,8.98-7.54,4.27-2.87,7.87-4.57,10.38-5.6,1.25-.45,2.28-.81,2.76-.85.48-.07.88,0,.88.44,0,.41-.11.66-.3.77-.66.41-1.18.55-3.02,1.47,2.95-.66,6.37-1.03,7.88-.84m-35.04,12c.22-.81.66-2.35,1.59-4.2-1,1.32-1.51,2.32-2.02,3.57.26.15.4.33.44.62m-3.2-1.03c1.18-3.79,3.1-10.64,6.45-15.57-2.32,2.54-5.75,8.06-6.45,15.57m12.51,2.13c2.76-2.17,11.56-8.17,17.96-10.45-7.58,1.88-13.58,6.29-17.96,10.45m8.83,10.23c-.4-1.1-1.47-1.84-2.94-1.73-.81-1.55-2.1-.81-2.47-.37.4.37.73.51,1.21.59v.33c-.92-.04-1.21-.4-1.84-1.07-.26,2.21,2.32,2.99,3.13,1.18,1.21-.04,1.95.51,2.21,1.29.25.77,0,1.62-.41,2.02-.74.88-1.92.88-2.98.33-.66-.33-1.36-1.03-1.99-1.69-.92-1.03-1.44-1.47-2.14-1.84-.38-.18-.77-.27-1.14-.33-.22-.04-.44-.07-.66-.07-.21,0-.41.02-.59.06-1.57.17-3.17.95-5.08,1.12h-1.03c-.64.56-3.72,3.31-3.72,3.31.15,1.14.18,1.69.18,2.72,0,.85-.04,1.25-.04,1.62-.04.37-.11.66-.22.95-.07.26-.3.48-.66.52-.33.07-1.11-.52-1.36-.15-.22.29.04.99.25,1.18h2.17c.26-.55.37-.88.52-1.21.19-.26.34-.67.48-.92.15-.25.29-.63.37-.88.04-.26.15-.52.18-.7.15-.41.37-.78.52-.99.04-.07.08-.12.12-.18.1.14.19.28.25.4.52.81.96,1.44,1.69,1.73.29.15.48.26.59.37.11.1.11.44.08.66,0,.3-.11.55-.41.66-.48.18-1.25-.51-1.55-.14-.26.29.04.84.3,1.21h1.99c.48-.77.66-1.84.66-2.72s0-1.14-.55-1.36c-.19-.11-.37-.55-.52-1.03,0-.05,0-.15,0-.25.95-.31,1.99-.87,3.14-1.71,0,.15.01.3.02.45.18,1.25.33,2.39,1.29,3.31.25.26.47.51.51.66,0,.11-.15.51-.26.7-.22.48-.7.88-1.06.92-.48.07-1.03-.55-1.4-.18-.33.33.11,1.03.33,1.21h2.02c.66-1.21,1.58-2.24,1.92-2.91.18-.48.18-.66-.19-.81-.66-.37-.59-1.18-.4-2.1.05-.15.13-.3.21-.45.5,1.39,1.15,2.7,2.67,3.1.26.03.62.22.66.3,0,.07,0,.37-.04.58-.07.45-.33.96-.66,1.22-.36.29-1.28-.66-1.58-.11-.22.44.15,1.03.34,1.18h1.95c.55-1.21,1.03-2.29,1.18-3.05.14-.92.14-1.25-.56-1.4-.37-.04-.66-.19-.77-.7-.26-.92-.22-2.47-.92-3.53.77.92,1.61,1.58,2.35,1.95,1.7.92,3.46.58,4.31-.63.55-.92.55-1.95.33-2.61m-16.45-8.1c0,.15.11.26.26.26s.26-.11.26-.26-.11-.29-.26-.29-.26.15-.26.29m-40.15,5.05c0,3.86.58,6.67,1.73,8.44,1.16,1.76,2.73,3.1,4.71,3.99,1.99.89,4.36,1.34,7.12,1.34s5.13-.48,6.96-1.44c1.83-.96,3.24-2.28,4.2-3.96.97-1.67,1.45-4.44,1.45-8.3V14.67h-6.04v20.95c0,3.4-.58,5.69-1.75,6.88-1.17,1.19-2.73,1.78-4.7,1.78s-3.63-.6-4.88-1.8c-1.26-1.2-1.88-3.65-1.88-7.35V14.67h-6.94v20.42Zm-22.93,12.94L13.34,14.67h7.41l9.57,25.81,9.27-25.81h4.98l-11.96,33.35h-6.94Z"/></svg>